<svg xmlns="http://www.w3.org/2000/svg" xmlns:xlink="http://www.w3.org/1999/xlink" width="512" zoomAndPan="magnify" viewBox="0 0 384 383.999986" height="512" preserveAspectRatio="xMidYMid meet" version="1.2"><g id="59b76970f9"><path style=" stroke:none;fill-rule:evenodd;fill:#f2c500;fill-opacity:1;" d="M 256 10.917969 L 256 373.082031 C 236 380.167969 214.457031 384 192 384 C 169.542969 384 148 380.167969 128 373.082031 L 128 10.917969 C 148 3.832031 169.542969 0 192 0 C 214.457031 0 236 3.832031 256 10.917969 Z M 256 10.917969 "/><path style=" stroke:none;fill-rule:evenodd;fill:#000000;fill-opacity:1;" d="M 128 10.917969 L 128 373.082031 C 53.417969 346.707031 0 275.582031 0 192 C 0 108.417969 53.417969 37.292969 128 10.917969 Z M 128 10.917969 "/><path style=" stroke:none;fill-rule:evenodd;fill:#e94b35;fill-opacity:1;" d="M 256 373.082031 L 256 10.917969 C 330.582031 37.292969 384 108.417969 384 192 C 384 275.582031 330.582031 346.707031 256 373.082031 Z M 256 373.082031 "/></g></svg>